<svg width="32" height="32" viewBox="0 0 32 32" fill="none" xmlns="http://www.w3.org/2000/svg">
<g clip-path="url(#clip0_33_434)">
<path d="M27.5481 25.8352C14.5945 32 6.55541 26.8421 1.40932 23.7093C1.09088 23.5119 0.549648 23.7555 1.01924 24.2948C2.73366 26.3736 8.35218 31.3841 15.686 31.3841C23.0248 31.3841 27.3908 27.3796 27.9369 26.6811C28.4794 25.9885 28.0962 25.6064 27.548 25.8352H27.5481ZM31.1861 23.8261C30.8382 23.3731 29.0708 23.2887 27.9586 23.4253C26.8446 23.558 25.1725 24.2388 25.3179 24.6476C25.3925 24.8007 25.5448 24.7321 26.31 24.6633C27.0774 24.5867 29.2271 24.3154 29.675 24.9009C30.125 25.4906 28.9894 28.2993 28.782 28.7522C28.5816 29.2052 28.8585 29.322 29.2349 29.0203C29.6062 28.7188 30.2783 27.9377 30.7293 26.8325C31.1772 25.7212 31.4503 24.171 31.1859 23.8261H31.1861Z" fill="#FF9900"/>
<path fill-rule="evenodd" clip-rule="evenodd" d="M18.8382 13.256C18.8382 14.8735 18.8791 16.2225 18.0615 17.659C17.4016 18.827 16.3563 19.5452 15.1884 19.5452C13.5941 19.5452 12.6656 18.3306 12.6656 16.5378C12.6656 12.999 15.8365 12.3567 18.8382 12.3567V13.256ZM23.0251 23.3761C22.7507 23.6213 22.3536 23.6389 22.0441 23.4753C20.666 22.3308 20.4207 21.7994 19.6615 20.7073C17.3841 23.0315 15.7723 23.7264 12.8175 23.7264C9.32543 23.7264 6.60413 21.5716 6.60413 17.2561C6.60413 13.8867 8.43203 11.5917 11.0305 10.4705C13.2847 9.47768 16.4322 9.30252 18.8382 9.02815V8.49086C18.8382 7.50391 18.914 6.33602 18.336 5.48348C17.8279 4.71847 16.8585 4.40311 16.0059 4.40311C14.4234 4.40311 13.0102 5.21478 12.6656 6.89658C12.5955 7.2704 12.3211 7.63833 11.9474 7.6558L7.918 7.22375C7.57938 7.14768 7.20567 6.87331 7.2991 6.3535C8.22758 1.47168 12.6363 0 16.5839 0C18.6044 0 21.2439 0.537295 22.8382 2.06732C24.8587 3.95346 24.666 6.47031 24.666 9.2091V15.6794C24.666 17.624 25.4718 18.4765 26.2309 19.5277C26.4995 19.9014 26.558 20.3512 26.2192 20.6314C25.3725 21.3379 23.8659 22.6519 23.0367 23.3878L23.025 23.3761" fill="black"/>
<path d="M27.5481 25.8352C14.5945 32 6.55541 26.8421 1.40932 23.7093C1.09088 23.5119 0.549648 23.7555 1.01924 24.2948C2.73366 26.3736 8.35218 31.3841 15.686 31.3841C23.0248 31.3841 27.3908 27.3796 27.9369 26.6811C28.4794 25.9885 28.0962 25.6064 27.548 25.8352H27.5481ZM31.1861 23.8261C30.8382 23.3731 29.0708 23.2887 27.9586 23.4253C26.8446 23.558 25.1725 24.2388 25.3179 24.6476C25.3925 24.8007 25.5448 24.7321 26.31 24.6633C27.0774 24.5867 29.2271 24.3154 29.675 24.9009C30.125 25.4906 28.9894 28.2993 28.782 28.7522C28.5816 29.2052 28.8585 29.322 29.2349 29.0203C29.6062 28.7188 30.2783 27.9377 30.7293 26.8325C31.1772 25.7212 31.4503 24.171 31.1859 23.8261H31.1861Z" fill="#FF9900"/>
<path fill-rule="evenodd" clip-rule="evenodd" d="M18.8382 13.256C18.8382 14.8735 18.8791 16.2225 18.0615 17.659C17.4016 18.827 16.3563 19.5452 15.1884 19.5452C13.5941 19.5452 12.6656 18.3306 12.6656 16.5378C12.6656 12.999 15.8365 12.3567 18.8382 12.3567V13.256ZM23.0251 23.3761C22.7507 23.6213 22.3536 23.6389 22.0441 23.4753C20.666 22.3308 20.4207 21.7994 19.6615 20.7073C17.3841 23.0315 15.7723 23.7264 12.8175 23.7264C9.32543 23.7264 6.60413 21.5716 6.60413 17.2561C6.60413 13.8867 8.43203 11.5917 11.0305 10.4705C13.2847 9.47768 16.4322 9.30252 18.8382 9.02815V8.49086C18.8382 7.50391 18.914 6.33602 18.336 5.48348C17.8279 4.71847 16.8585 4.40311 16.0059 4.40311C14.4234 4.40311 13.0102 5.21478 12.6656 6.89658C12.5955 7.2704 12.3211 7.63833 11.9474 7.6558L7.918 7.22375C7.57938 7.14768 7.20567 6.87331 7.2991 6.3535C8.22758 1.47168 12.6363 0 16.5839 0C18.6044 0 21.2439 0.537295 22.8382 2.06732C24.8587 3.95346 24.666 6.47031 24.666 9.2091V15.6794C24.666 17.624 25.4718 18.4765 26.2309 19.5277C26.4995 19.9014 26.558 20.3512 26.2192 20.6314C25.3725 21.3379 23.8659 22.6519 23.0367 23.3878L23.025 23.3761" fill="black"/>
</g>
<defs>
<clipPath id="clip0_33_434">
<rect width="32" height="32" fill="white"/>
</clipPath>
</defs>
</svg>
