<svg width="20" height="20" viewBox="0 0 20 20" fill="none" xmlns="http://www.w3.org/2000/svg">
<path d="M13.92 10.66C14.1467 10.4333 14.26 10.1267 14.26 9.74C14.26 9.56667 14.2333 9.40667 14.18 9.26C14.1267 9.11333 14.04 9 13.92 8.92L8.00001 2.92C7.86668 2.78667 7.73001 2.68333 7.59001 2.61C7.45001 2.53667 7.28001 2.5 7.08001 2.5C6.74668 2.5 6.47334 2.61333 6.26001 2.84C6.12668 2.96 6.02334 3.1 5.95001 3.26C5.87668 3.42 5.84001 3.58 5.84001 3.74C5.84001 4.14 5.94668 4.44667 6.16001 4.66L11.26 9.84L6.08001 15.42C5.86668 15.6333 5.76001 15.94 5.76001 16.34C5.76001 16.66 5.89334 16.9667 6.16001 17.26C6.42668 17.42 6.73334 17.5 7.08001 17.5C7.25334 17.5 7.42001 17.4633 7.58001 17.39C7.74001 17.3167 7.88001 17.2133 8.00001 17.08L13.92 10.66Z" fill="black"/>
</svg>
