<svg width="21" height="20" viewBox="0 0 21 20" fill="none" xmlns="http://www.w3.org/2000/svg">
<path d="M13.42 2.5C13.26 2.5 13.1033 2.53333 12.95 2.6C12.7967 2.66667 12.6733 2.74667 12.58 2.84L6.66 8.84C6.44666 9.05333 6.34 9.35667 6.34 9.75C6.34 10.1433 6.44666 10.4467 6.66 10.66L12.58 17.08C12.7267 17.2267 12.8633 17.3333 12.99 17.4C13.1167 17.4667 13.26 17.5 13.42 17.5C13.8067 17.5 14.1133 17.3867 14.34 17.16C14.46 17.04 14.56 16.8967 14.64 16.73C14.72 16.5633 14.76 16.4 14.76 16.24C14.76 15.8533 14.62 15.5533 14.34 15.34L9.26 9.74L14.34 4.5C14.5533 4.28667 14.66 4.03333 14.66 3.74C14.66 3.35333 14.5533 3.05333 14.34 2.84C14.1667 2.70667 14.0133 2.61667 13.88 2.57C13.7467 2.52333 13.5933 2.5 13.42 2.5Z" fill="black"/>
</svg>
