<svg width="31" height="34" viewBox="0 0 31 34" fill="none" xmlns="http://www.w3.org/2000/svg">
<path d="M29.75 23.3341V10.6605C29.7495 10.2457 29.6404 9.83824 29.4334 9.47872C29.2265 9.1192 28.9291 8.82014 28.5707 8.61131L17.2894 2.04592C16.7459 1.72948 16.1282 1.56277 15.4993 1.56277C14.8703 1.56277 14.2526 1.72948 13.7091 2.04592L2.42934 8.61131C2.07093 8.82014 1.77346 9.1192 1.56655 9.47872C1.35965 9.83824 1.25051 10.2457 1.25 10.6605V23.3341C1.25025 23.7491 1.35926 24.1569 1.56619 24.5167C1.77311 24.8765 2.07071 25.1758 2.42934 25.3847L13.7106 31.9501C14.2543 32.2661 14.8719 32.4326 15.5007 32.4326C16.1296 32.4326 16.7472 32.2661 17.2909 31.9501L28.5721 25.3847C28.9305 25.1756 29.2278 24.8762 29.4345 24.5164C29.6411 24.1566 29.7499 23.749 29.75 23.3341Z" stroke="white" stroke-width="1.5" stroke-linecap="round" stroke-linejoin="round"/>
<path d="M15.4998 17.591V32.4348M15.4998 17.591L1.99194 9.76169M15.4998 17.591L29.5271 9.76169" stroke="white" stroke-width="1.5" stroke-linecap="round" stroke-linejoin="round"/>
</svg>
