<svg width="25" height="34" viewBox="0 0 25 34" fill="none" xmlns="http://www.w3.org/2000/svg">
<path d="M16.4177 0.869875L1 19.9249H10.0001L7.78457 32.1053C7.78035 32.1292 7.78143 32.1537 7.78772 32.1772C7.79401 32.2006 7.80537 32.2224 7.82099 32.241C7.83661 32.2595 7.85612 32.2744 7.87813 32.2847C7.90014 32.2949 7.92413 32.3001 7.9484 32.3001V32.3001C7.97422 32.3001 7.99968 32.294 8.02275 32.2824C8.04582 32.2708 8.06586 32.254 8.08129 32.2333L23.5004 13.1748H14.5002L16.7264 0.992924C16.7293 0.968655 16.7271 0.944026 16.7199 0.920676C16.7126 0.897325 16.7005 0.875788 16.6842 0.857496C16.668 0.839205 16.6481 0.824578 16.6258 0.814589C16.6034 0.8046 16.5792 0.799477 16.5548 0.799562V0.799562C16.528 0.799668 16.5016 0.806091 16.4778 0.818309C16.454 0.830527 16.4334 0.848194 16.4177 0.869875V0.869875Z" stroke="white" stroke-width="1.5" stroke-linecap="round" stroke-linejoin="round"/>
</svg>
