<svg width="98" height="99" viewBox="0 0 98 99" fill="none" xmlns="http://www.w3.org/2000/svg">
<path d="M97.608 0.679947H0.0966339V98.1913H97.608V0.679947Z" fill="white"/>
<path d="M15.0384 12.6813H12.098V15.6217H15.0384V12.6813Z" fill="black"/>
<path d="M17.9787 12.6813H15.0384V15.6217H17.9787V12.6813Z" fill="black"/>
<path d="M20.9191 12.6813H17.9787V15.6217H20.9191V12.6813Z" fill="black"/>
<path d="M23.8594 12.6813H20.9191V15.6217H23.8594V12.6813Z" fill="black"/>
<path d="M26.7998 12.6813H23.8594V15.6217H26.7998V12.6813Z" fill="black"/>
<path d="M29.7401 12.6813H26.7998V15.6217H29.7401V12.6813Z" fill="black"/>
<path d="M32.6804 12.6813H29.7401V15.6217H32.6804V12.6813Z" fill="black"/>
<path d="M38.5611 12.6813H35.6208V15.6217H38.5611V12.6813Z" fill="black"/>
<path d="M41.5015 12.6813H38.5611V15.6217H41.5015V12.6813Z" fill="black"/>
<path d="M47.3822 12.6813H44.4418V15.6217H47.3822V12.6813Z" fill="black"/>
<path d="M50.3225 12.6813H47.3822V15.6217H50.3225V12.6813Z" fill="black"/>
<path d="M53.2628 12.6813H50.3225V15.6217H53.2628V12.6813Z" fill="black"/>
<path d="M62.0839 12.6813H59.1435V15.6217H62.0839V12.6813Z" fill="black"/>
<path d="M67.9646 12.6813H65.0242V15.6217H67.9646V12.6813Z" fill="black"/>
<path d="M70.9049 12.6813H67.9646V15.6217H70.9049V12.6813Z" fill="black"/>
<path d="M73.8452 12.6813H70.9049V15.6217H73.8452V12.6813Z" fill="black"/>
<path d="M76.7856 12.6813H73.8452V15.6217H76.7856V12.6813Z" fill="black"/>
<path d="M79.7259 12.6813H76.7856V15.6217H79.7259V12.6813Z" fill="black"/>
<path d="M82.6663 12.6813H79.7259V15.6217H82.6663V12.6813Z" fill="black"/>
<path d="M85.6066 12.6813H82.6663V15.6217H85.6066V12.6813Z" fill="black"/>
<path d="M15.0384 15.6217H12.098V18.562H15.0384V15.6217Z" fill="black"/>
<path d="M32.6804 15.6217H29.7401L29.7401 18.562H32.6804V15.6217Z" fill="black"/>
<path d="M41.5015 15.6217H38.5611V18.562H41.5015V15.6217Z" fill="black"/>
<path d="M47.3822 15.6217H44.4418V18.562H47.3822V15.6217Z" fill="black"/>
<path d="M50.3225 15.6217H47.3822V18.562H50.3225V15.6217Z" fill="black"/>
<path d="M62.0839 15.6217H59.1435V18.562H62.0839V15.6217Z" fill="black"/>
<path d="M67.9646 15.6217H65.0242V18.562H67.9646V15.6217Z" fill="black"/>
<path d="M85.6066 15.6217H82.6663V18.562H85.6066V15.6217Z" fill="black"/>
<path d="M15.0384 18.562H12.098V21.5024H15.0384V18.562Z" fill="black"/>
<path d="M20.9191 18.562H17.9787V21.5024H20.9191V18.562Z" fill="black"/>
<path d="M23.8594 18.562H20.9191V21.5024H23.8594V18.562Z" fill="black"/>
<path d="M26.7998 18.562H23.8594V21.5024H26.7998V18.562Z" fill="black"/>
<path d="M32.6804 18.562H29.7401V21.5024H32.6804V18.562Z" fill="black"/>
<path d="M41.5015 18.562H38.5611V21.5024H41.5015V18.562Z" fill="black"/>
<path d="M47.3822 18.562H44.4418V21.5024H47.3822V18.562Z" fill="black"/>
<path d="M53.2628 18.562H50.3225V21.5024H53.2628V18.562Z" fill="black"/>
<path d="M56.2032 18.562H53.2628V21.5024H56.2032V18.562Z" fill="black"/>
<path d="M59.1435 18.562H56.2032V21.5024H59.1435V18.562Z" fill="black"/>
<path d="M62.0839 18.562H59.1435V21.5024H62.0839V18.562Z" fill="black"/>
<path d="M67.9646 18.562H65.0242V21.5024H67.9646V18.562Z" fill="black"/>
<path d="M73.8452 18.562H70.9049V21.5024H73.8452V18.562Z" fill="black"/>
<path d="M76.7856 18.562H73.8452V21.5024H76.7856V18.562Z" fill="black"/>
<path d="M79.7259 18.562H76.7856V21.5024H79.7259V18.562Z" fill="black"/>
<path d="M85.6066 18.562H82.6663V21.5024H85.6066V18.562Z" fill="black"/>
<path d="M15.0384 21.5024H12.098V24.4427H15.0384V21.5024Z" fill="black"/>
<path d="M20.9191 21.5024H17.9787V24.4427H20.9191V21.5024Z" fill="black"/>
<path d="M23.8594 21.5024H20.9191V24.4427H23.8594V21.5024Z" fill="black"/>
<path d="M26.7998 21.5024H23.8594V24.4427H26.7998V21.5024Z" fill="black"/>
<path d="M32.6804 21.5024H29.7401V24.4427H32.6804V21.5024Z" fill="black"/>
<path d="M47.3822 21.5024H44.4418V24.4427H47.3822V21.5024Z" fill="black"/>
<path d="M56.2032 21.5024H53.2628V24.4427H56.2032V21.5024Z" fill="black"/>
<path d="M62.0839 21.5024H59.1435V24.4427H62.0839V21.5024Z" fill="black"/>
<path d="M67.9646 21.5024H65.0242V24.4427H67.9646V21.5024Z" fill="black"/>
<path d="M73.8452 21.5024H70.9049V24.4427H73.8452V21.5024Z" fill="black"/>
<path d="M76.7856 21.5024H73.8452V24.4427H76.7856V21.5024Z" fill="black"/>
<path d="M79.7259 21.5024H76.7856V24.4427H79.7259V21.5024Z" fill="black"/>
<path d="M85.6066 21.5024H82.6663V24.4427H85.6066V21.5024Z" fill="black"/>
<path d="M15.0384 24.4427H12.098V27.3831H15.0384V24.4427Z" fill="black"/>
<path d="M20.9191 24.4427H17.9787V27.3831H20.9191V24.4427Z" fill="black"/>
<path d="M23.8594 24.4427H20.9191V27.3831H23.8594V24.4427Z" fill="black"/>
<path d="M26.7998 24.4427H23.8594V27.3831H26.7998V24.4427Z" fill="black"/>
<path d="M32.6804 24.4427H29.7401V27.3831H32.6804V24.4427Z" fill="black"/>
<path d="M38.5611 24.4427H35.6208V27.3831H38.5611V24.4427Z" fill="black"/>
<path d="M50.3225 24.4427H47.3822V27.3831H50.3225V24.4427Z" fill="black"/>
<path d="M53.2628 24.4427H50.3225V27.3831H53.2628V24.4427Z" fill="black"/>
<path d="M56.2032 24.4427H53.2628V27.3831H56.2032V24.4427Z" fill="black"/>
<path d="M59.1435 24.4427H56.2032V27.3831H59.1435V24.4427Z" fill="black"/>
<path d="M62.0839 24.4427H59.1435V27.3831H62.0839V24.4427Z" fill="black"/>
<path d="M67.9646 24.4427H65.0242V27.3831H67.9646V24.4427Z" fill="black"/>
<path d="M73.8452 24.4427H70.9049V27.3831H73.8452V24.4427Z" fill="black"/>
<path d="M76.7856 24.4427H73.8452V27.3831H76.7856V24.4427Z" fill="black"/>
<path d="M79.7259 24.4427H76.7856V27.3831H79.7259V24.4427Z" fill="black"/>
<path d="M85.6066 24.4427H82.6663V27.3831H85.6066V24.4427Z" fill="black"/>
<path d="M15.0384 27.3831H12.098V30.3234H15.0384V27.3831Z" fill="black"/>
<path d="M32.6804 27.3831H29.7401V30.3234H32.6804V27.3831Z" fill="black"/>
<path d="M50.3225 27.3831H47.3822V30.3234H50.3225V27.3831Z" fill="black"/>
<path d="M59.1435 27.3831H56.2032L56.2032 30.3234H59.1435V27.3831Z" fill="black"/>
<path d="M67.9646 27.3831H65.0242V30.3234H67.9646V27.3831Z" fill="black"/>
<path d="M85.6066 27.3831H82.6663V30.3234H85.6066V27.3831Z" fill="black"/>
<path d="M15.0384 30.3234H12.098V33.2637H15.0384V30.3234Z" fill="black"/>
<path d="M17.9787 30.3234L15.0384 30.3234V33.2637H17.9787V30.3234Z" fill="black"/>
<path d="M20.9191 30.3234H17.9787V33.2637H20.9191V30.3234Z" fill="black"/>
<path d="M23.8594 30.3234H20.9191V33.2637H23.8594V30.3234Z" fill="black"/>
<path d="M26.7998 30.3234H23.8594V33.2637H26.7998V30.3234Z" fill="black"/>
<path d="M29.7401 30.3234L26.7998 30.3234V33.2637H29.7401L29.7401 30.3234Z" fill="black"/>
<path d="M32.6804 30.3234H29.7401L29.7401 33.2637H32.6804V30.3234Z" fill="black"/>
<path d="M38.5611 30.3234H35.6208V33.2637H38.5611V30.3234Z" fill="black"/>
<path d="M44.4418 30.3234H41.5015V33.2637H44.4418V30.3234Z" fill="black"/>
<path d="M50.3225 30.3234H47.3822V33.2637H50.3225V30.3234Z" fill="black"/>
<path d="M56.2032 30.3234L53.2628 30.3234V33.2637H56.2032L56.2032 30.3234Z" fill="black"/>
<path d="M62.0839 30.3234L59.1435 30.3234V33.2637H62.0839V30.3234Z" fill="black"/>
<path d="M67.9646 30.3234H65.0242V33.2637H67.9646V30.3234Z" fill="black"/>
<path d="M70.9049 30.3234L67.9646 30.3234V33.2637H70.9049V30.3234Z" fill="black"/>
<path d="M73.8452 30.3234H70.9049V33.2637H73.8452V30.3234Z" fill="black"/>
<path d="M76.7856 30.3234H73.8452V33.2637H76.7856V30.3234Z" fill="black"/>
<path d="M79.7259 30.3234H76.7856V33.2637H79.7259V30.3234Z" fill="black"/>
<path d="M82.6663 30.3234L79.7259 30.3234V33.2637H82.6663V30.3234Z" fill="black"/>
<path d="M85.6066 30.3234H82.6663V33.2637H85.6066V30.3234Z" fill="black"/>
<path d="M38.5611 33.2637H35.6208V36.2041H38.5611V33.2637Z" fill="black"/>
<path d="M47.3822 33.2637H44.4418V36.2041H47.3822V33.2637Z" fill="black"/>
<path d="M50.3225 33.2637H47.3822V36.2041H50.3225V33.2637Z" fill="black"/>
<path d="M56.2032 33.2637H53.2628V36.2041H56.2032V33.2637Z" fill="black"/>
<path d="M59.1435 33.2637H56.2032V36.2041H59.1435V33.2637Z" fill="black"/>
<path d="M62.0839 33.2637H59.1435V36.2041H62.0839V33.2637Z" fill="black"/>
<path d="M15.0384 36.2041H12.098V39.1444H15.0384V36.2041Z" fill="black"/>
<path d="M23.8594 36.2041H20.9191V39.1444H23.8594V36.2041Z" fill="black"/>
<path d="M26.7998 36.2041H23.8594V39.1444H26.7998V36.2041Z" fill="black"/>
<path d="M29.7401 36.2041H26.7998V39.1444H29.7401V36.2041Z" fill="black"/>
<path d="M32.6804 36.2041H29.7401V39.1444H32.6804V36.2041Z" fill="black"/>
<path d="M35.6208 36.2041H32.6804V39.1444H35.6208V36.2041Z" fill="black"/>
<path d="M38.5611 36.2041H35.6208V39.1444H38.5611V36.2041Z" fill="black"/>
<path d="M56.2032 36.2041H53.2628V39.1444H56.2032V36.2041Z" fill="black"/>
<path d="M62.0839 36.2041H59.1435V39.1444H62.0839V36.2041Z" fill="black"/>
<path d="M65.0242 36.2041H62.0839V39.1444H65.0242V36.2041Z" fill="black"/>
<path d="M67.9646 36.2041H65.0242V39.1444H67.9646V36.2041Z" fill="black"/>
<path d="M73.8452 36.2041H70.9049V39.1444H73.8452V36.2041Z" fill="black"/>
<path d="M85.6066 36.2041H82.6663V39.1444H85.6066V36.2041Z" fill="black"/>
<path d="M17.9787 39.1444H15.0384V42.0848H17.9787V39.1444Z" fill="black"/>
<path d="M20.9191 39.1444H17.9787V42.0848H20.9191V39.1444Z" fill="black"/>
<path d="M38.5611 39.1444H35.6208V42.0848H38.5611V39.1444Z" fill="black"/>
<path d="M41.5015 39.1444H38.5611V42.0848H41.5015V39.1444Z" fill="black"/>
<path d="M44.4418 39.1444H41.5015V42.0848H44.4418V39.1444Z" fill="black"/>
<path d="M47.3822 39.1444H44.4418V42.0848H47.3822V39.1444Z" fill="black"/>
<path d="M50.3225 39.1444H47.3822V42.0848H50.3225V39.1444Z" fill="black"/>
<path d="M53.2628 39.1444H50.3225V42.0848H53.2628V39.1444Z" fill="black"/>
<path d="M56.2032 39.1444H53.2628V42.0848H56.2032V39.1444Z" fill="black"/>
<path d="M73.8452 39.1444H70.9049V42.0848H73.8452V39.1444Z" fill="black"/>
<path d="M82.6663 39.1444H79.7259V42.0848H82.6663V39.1444Z" fill="black"/>
<path d="M85.6066 39.1444H82.6663V42.0848H85.6066V39.1444Z" fill="black"/>
<path d="M20.9191 42.0848H17.9787V45.0251H20.9191V42.0848Z" fill="black"/>
<path d="M23.8594 42.0848H20.9191V45.0251H23.8594V42.0848Z" fill="black"/>
<path d="M26.7998 42.0848H23.8594V45.0251H26.7998V42.0848Z" fill="black"/>
<path d="M29.7401 42.0848H26.7998V45.0251H29.7401V42.0848Z" fill="black"/>
<path d="M32.6804 42.0848H29.7401V45.0251H32.6804V42.0848Z" fill="black"/>
<path d="M35.6208 42.0848H32.6804V45.0251H35.6208V42.0848Z" fill="black"/>
<path d="M41.5015 42.0848H38.5611V45.0251H41.5015V42.0848Z" fill="black"/>
<path d="M47.3822 42.0848H44.4418V45.0251H47.3822V42.0848Z" fill="black"/>
<path d="M50.3225 42.0848H47.3822V45.0251H50.3225V42.0848Z" fill="black"/>
<path d="M67.9646 42.0848H65.0242V45.0251H67.9646V42.0848Z" fill="black"/>
<path d="M73.8452 42.0848H70.9049V45.0251H73.8452V42.0848Z" fill="black"/>
<path d="M85.6066 42.0848H82.6663V45.0251H85.6066V42.0848Z" fill="black"/>
<path d="M15.0384 45.0251H12.098V47.9655H15.0384V45.0251Z" fill="black"/>
<path d="M26.7998 45.0251H23.8594V47.9655H26.7998V45.0251Z" fill="black"/>
<path d="M29.7401 45.0251H26.7998V47.9655H29.7401V45.0251Z" fill="black"/>
<path d="M38.5611 45.0251H35.6208V47.9655H38.5611V45.0251Z" fill="black"/>
<path d="M47.3822 45.0251H44.4418V47.9655H47.3822V45.0251Z" fill="black"/>
<path d="M62.0839 45.0251H59.1435V47.9655H62.0839V45.0251Z" fill="black"/>
<path d="M67.9646 45.0251H65.0242V47.9655H67.9646V45.0251Z" fill="black"/>
<path d="M70.9049 45.0251H67.9646V47.9655H70.9049V45.0251Z" fill="black"/>
<path d="M85.6066 45.0251H82.6663V47.9655H85.6066V45.0251Z" fill="black"/>
<path d="M15.0384 47.9655H12.098V50.9058H15.0384V47.9655Z" fill="black"/>
<path d="M17.9787 47.9655H15.0384V50.9058H17.9787V47.9655Z" fill="black"/>
<path d="M32.6804 47.9655H29.7401L29.7401 50.9058H32.6804V47.9655Z" fill="black"/>
<path d="M38.5611 47.9655H35.6208V50.9058H38.5611V47.9655Z" fill="black"/>
<path d="M47.3822 47.9655H44.4418V50.9058H47.3822V47.9655Z" fill="black"/>
<path d="M50.3225 47.9655H47.3822V50.9058H50.3225V47.9655Z" fill="black"/>
<path d="M59.1435 47.9655H56.2032V50.9058H59.1435V47.9655Z" fill="black"/>
<path d="M65.0242 47.9655H62.0839V50.9058H65.0242V47.9655Z" fill="black"/>
<path d="M67.9646 47.9655H65.0242V50.9058H67.9646V47.9655Z" fill="black"/>
<path d="M73.8452 47.9655H70.9049V50.9058H73.8452V47.9655Z" fill="black"/>
<path d="M82.6663 47.9655H79.7259V50.9058H82.6663V47.9655Z" fill="black"/>
<path d="M20.9191 50.9058H17.9787V53.8461H20.9191V50.9058Z" fill="black"/>
<path d="M26.7998 50.9058H23.8594V53.8461H26.7998V50.9058Z" fill="black"/>
<path d="M29.7401 50.9058H26.7998V53.8461H29.7401L29.7401 50.9058Z" fill="black"/>
<path d="M38.5611 50.9058H35.6208V53.8461H38.5611V50.9058Z" fill="black"/>
<path d="M44.4418 50.9058H41.5015V53.8461H44.4418V50.9058Z" fill="black"/>
<path d="M47.3822 50.9058H44.4418V53.8461H47.3822V50.9058Z" fill="black"/>
<path d="M50.3225 50.9058H47.3822V53.8461H50.3225V50.9058Z" fill="black"/>
<path d="M53.2628 50.9058H50.3225V53.8461H53.2628V50.9058Z" fill="black"/>
<path d="M62.0839 50.9058H59.1435V53.8461H62.0839V50.9058Z" fill="black"/>
<path d="M67.9646 50.9058H65.0242V53.8461H67.9646V50.9058Z" fill="black"/>
<path d="M70.9049 50.9058H67.9646V53.8461H70.9049V50.9058Z" fill="black"/>
<path d="M73.8452 50.9058H70.9049V53.8461H73.8452V50.9058Z" fill="black"/>
<path d="M76.7856 50.9058H73.8452V53.8461H76.7856V50.9058Z" fill="black"/>
<path d="M85.6066 50.9058H82.6663V53.8461H85.6066V50.9058Z" fill="black"/>
<path d="M23.8594 53.8461H20.9191V56.7865H23.8594V53.8461Z" fill="black"/>
<path d="M26.7998 53.8461H23.8594V56.7865H26.7998V53.8461Z" fill="black"/>
<path d="M29.7401 53.8461H26.7998V56.7865H29.7401V53.8461Z" fill="black"/>
<path d="M32.6804 53.8461H29.7401V56.7865H32.6804V53.8461Z" fill="black"/>
<path d="M35.6208 53.8461H32.6804V56.7865H35.6208V53.8461Z" fill="black"/>
<path d="M38.5611 53.8461H35.6208V56.7865H38.5611V53.8461Z" fill="black"/>
<path d="M44.4418 53.8461H41.5015V56.7865H44.4418V53.8461Z" fill="black"/>
<path d="M53.2628 53.8461H50.3225V56.7865H53.2628V53.8461Z" fill="black"/>
<path d="M59.1435 53.8461H56.2032V56.7865H59.1435V53.8461Z" fill="black"/>
<path d="M62.0839 53.8461H59.1435V56.7865H62.0839V53.8461Z" fill="black"/>
<path d="M67.9646 53.8461H65.0242V56.7865H67.9646V53.8461Z" fill="black"/>
<path d="M76.7856 53.8461H73.8452V56.7865H76.7856V53.8461Z" fill="black"/>
<path d="M82.6663 53.8461H79.7259V56.7865H82.6663V53.8461Z" fill="black"/>
<path d="M85.6066 53.8461H82.6663V56.7865H85.6066V53.8461Z" fill="black"/>
<path d="M20.9191 56.7865L17.9787 56.7865V59.7268H20.9191V56.7865Z" fill="black"/>
<path d="M23.8594 56.7865H20.9191V59.7268H23.8594V56.7865Z" fill="black"/>
<path d="M29.7401 56.7865H26.7998V59.7268H29.7401V56.7865Z" fill="black"/>
<path d="M38.5611 56.7865H35.6208V59.7268H38.5611V56.7865Z" fill="black"/>
<path d="M44.4418 56.7865H41.5015V59.7268H44.4418V56.7865Z" fill="black"/>
<path d="M47.3822 56.7865L44.4418 56.7865V59.7268H47.3822V56.7865Z" fill="black"/>
<path d="M62.0839 56.7865H59.1435V59.7268H62.0839V56.7865Z" fill="black"/>
<path d="M67.9646 56.7865H65.0242V59.7268H67.9646V56.7865Z" fill="black"/>
<path d="M70.9049 56.7865L67.9646 56.7865V59.7268H70.9049V56.7865Z" fill="black"/>
<path d="M79.7259 56.7865H76.7856V59.7268H79.7259V56.7865Z" fill="black"/>
<path d="M82.6663 56.7865H79.7259V59.7268H82.6663V56.7865Z" fill="black"/>
<path d="M17.9787 59.7268H15.0384V62.6672H17.9787V59.7268Z" fill="black"/>
<path d="M20.9191 59.7268H17.9787V62.6672H20.9191V59.7268Z" fill="black"/>
<path d="M23.8594 59.7268H20.9191V62.6672H23.8594V59.7268Z" fill="black"/>
<path d="M26.7998 59.7268H23.8594V62.6672H26.7998V59.7268Z" fill="black"/>
<path d="M32.6804 59.7268H29.7401L29.7401 62.6672H32.6804V59.7268Z" fill="black"/>
<path d="M38.5611 59.7268H35.6208V62.6672H38.5611V59.7268Z" fill="black"/>
<path d="M47.3822 59.7268H44.4418V62.6672H47.3822V59.7268Z" fill="black"/>
<path d="M53.2628 59.7268H50.3225V62.6672H53.2628V59.7268Z" fill="black"/>
<path d="M56.2032 59.7268H53.2628V62.6672H56.2032V59.7268Z" fill="black"/>
<path d="M62.0839 59.7268H59.1435V62.6672H62.0839V59.7268Z" fill="black"/>
<path d="M65.0242 59.7268H62.0839V62.6672H65.0242V59.7268Z" fill="black"/>
<path d="M67.9646 59.7268H65.0242V62.6672H67.9646V59.7268Z" fill="black"/>
<path d="M70.9049 59.7268H67.9646V62.6672H70.9049V59.7268Z" fill="black"/>
<path d="M73.8452 59.7268H70.9049V62.6672H73.8452V59.7268Z" fill="black"/>
<path d="M79.7259 59.7268H76.7856V62.6672H79.7259V59.7268Z" fill="black"/>
<path d="M38.5611 62.6672H35.6208V65.6075H38.5611V62.6672Z" fill="black"/>
<path d="M44.4418 62.6672H41.5015V65.6075H44.4418V62.6672Z" fill="black"/>
<path d="M47.3822 62.6672H44.4418V65.6075H47.3822V62.6672Z" fill="black"/>
<path d="M50.3225 62.6672H47.3822V65.6075H50.3225V62.6672Z" fill="black"/>
<path d="M56.2032 62.6672H53.2628V65.6075H56.2032V62.6672Z" fill="black"/>
<path d="M62.0839 62.6672H59.1435V65.6075H62.0839V62.6672Z" fill="black"/>
<path d="M73.8452 62.6672H70.9049V65.6075H73.8452V62.6672Z" fill="black"/>
<path d="M76.7856 62.6672H73.8452V65.6075H76.7856V62.6672Z" fill="black"/>
<path d="M79.7259 62.6672H76.7856V65.6075H79.7259V62.6672Z" fill="black"/>
<path d="M85.6066 62.6672H82.6663V65.6075H85.6066V62.6672Z" fill="black"/>
<path d="M15.0384 65.6075H12.098V68.5479H15.0384V65.6075Z" fill="black"/>
<path d="M17.9787 65.6075H15.0384V68.5479H17.9787V65.6075Z" fill="black"/>
<path d="M20.9191 65.6075H17.9787V68.5479H20.9191V65.6075Z" fill="black"/>
<path d="M23.8594 65.6075H20.9191V68.5479H23.8594V65.6075Z" fill="black"/>
<path d="M26.7998 65.6075H23.8594V68.5479H26.7998V65.6075Z" fill="black"/>
<path d="M29.7401 65.6075H26.7998V68.5479H29.7401V65.6075Z" fill="black"/>
<path d="M32.6804 65.6075H29.7401V68.5479H32.6804V65.6075Z" fill="black"/>
<path d="M38.5611 65.6075H35.6208V68.5479H38.5611V65.6075Z" fill="black"/>
<path d="M44.4418 65.6075H41.5015V68.5479H44.4418V65.6075Z" fill="black"/>
<path d="M50.3225 65.6075H47.3822V68.5479H50.3225V65.6075Z" fill="black"/>
<path d="M62.0839 65.6075H59.1435V68.5479H62.0839V65.6075Z" fill="black"/>
<path d="M67.9646 65.6075H65.0242V68.5479H67.9646V65.6075Z" fill="black"/>
<path d="M73.8452 65.6075H70.9049V68.5479H73.8452V65.6075Z" fill="black"/>
<path d="M76.7856 65.6075H73.8452V68.5479H76.7856V65.6075Z" fill="black"/>
<path d="M79.7259 65.6075H76.7856V68.5479H79.7259V65.6075Z" fill="black"/>
<path d="M82.6663 65.6075H79.7259V68.5479H82.6663V65.6075Z" fill="black"/>
<path d="M85.6066 65.6075H82.6663V68.5479H85.6066V65.6075Z" fill="black"/>
<path d="M15.0384 68.5479H12.098V71.4882H15.0384V68.5479Z" fill="black"/>
<path d="M32.6804 68.5479H29.7401L29.7401 71.4882H32.6804V68.5479Z" fill="black"/>
<path d="M38.5611 68.5479H35.6208V71.4882H38.5611V68.5479Z" fill="black"/>
<path d="M44.4418 68.5479H41.5015V71.4882H44.4418V68.5479Z" fill="black"/>
<path d="M50.3225 68.5479H47.3822V71.4882H50.3225V68.5479Z" fill="black"/>
<path d="M62.0839 68.5479H59.1435V71.4882H62.0839V68.5479Z" fill="black"/>
<path d="M73.8452 68.5479H70.9049V71.4882H73.8452V68.5479Z" fill="black"/>
<path d="M79.7259 68.5479H76.7856V71.4882H79.7259V68.5479Z" fill="black"/>
<path d="M85.6066 68.5479H82.6663V71.4882H85.6066V68.5479Z" fill="black"/>
<path d="M15.0384 71.4882H12.098V74.4285H15.0384V71.4882Z" fill="black"/>
<path d="M20.9191 71.4882H17.9787V74.4285H20.9191V71.4882Z" fill="black"/>
<path d="M23.8594 71.4882H20.9191V74.4285H23.8594V71.4882Z" fill="black"/>
<path d="M26.7998 71.4882H23.8594V74.4285H26.7998V71.4882Z" fill="black"/>
<path d="M32.6804 71.4882H29.7401V74.4285H32.6804V71.4882Z" fill="black"/>
<path d="M38.5611 71.4882H35.6208V74.4285H38.5611V71.4882Z" fill="black"/>
<path d="M41.5015 71.4882H38.5611V74.4285H41.5015V71.4882Z" fill="black"/>
<path d="M53.2628 71.4882H50.3225V74.4285H53.2628V71.4882Z" fill="black"/>
<path d="M56.2032 71.4882H53.2628V74.4285H56.2032V71.4882Z" fill="black"/>
<path d="M62.0839 71.4882H59.1435V74.4285H62.0839V71.4882Z" fill="black"/>
<path d="M65.0242 71.4882H62.0839V74.4285H65.0242V71.4882Z" fill="black"/>
<path d="M67.9646 71.4882H65.0242V74.4285H67.9646V71.4882Z" fill="black"/>
<path d="M70.9049 71.4882H67.9646V74.4285H70.9049V71.4882Z" fill="black"/>
<path d="M73.8452 71.4882H70.9049V74.4285H73.8452V71.4882Z" fill="black"/>
<path d="M82.6663 71.4882H79.7259V74.4285H82.6663V71.4882Z" fill="black"/>
<path d="M85.6066 71.4882H82.6663V74.4285H85.6066V71.4882Z" fill="black"/>
<path d="M15.0384 74.4285H12.098V77.3689H15.0384V74.4285Z" fill="black"/>
<path d="M20.9191 74.4285H17.9787V77.3689H20.9191V74.4285Z" fill="black"/>
<path d="M23.8594 74.4285H20.9191V77.3689H23.8594V74.4285Z" fill="black"/>
<path d="M26.7998 74.4285H23.8594V77.3689H26.7998V74.4285Z" fill="black"/>
<path d="M32.6804 74.4285H29.7401V77.3689H32.6804V74.4285Z" fill="black"/>
<path d="M38.5611 74.4285H35.6208V77.3689H38.5611V74.4285Z" fill="black"/>
<path d="M44.4418 74.4285H41.5015V77.3689H44.4418V74.4285Z" fill="black"/>
<path d="M53.2628 74.4285H50.3225V77.3689H53.2628V74.4285Z" fill="black"/>
<path d="M56.2032 74.4285H53.2628V77.3689H56.2032V74.4285Z" fill="black"/>
<path d="M59.1435 74.4285H56.2032V77.3689H59.1435V74.4285Z" fill="black"/>
<path d="M67.9646 74.4285H65.0242V77.3689H67.9646V74.4285Z" fill="black"/>
<path d="M15.0384 77.3689H12.098V80.3092H15.0384V77.3689Z" fill="black"/>
<path d="M20.9191 77.3689H17.9787V80.3092H20.9191V77.3689Z" fill="black"/>
<path d="M23.8594 77.3689H20.9191V80.3092H23.8594V77.3689Z" fill="black"/>
<path d="M26.7998 77.3689H23.8594V80.3092H26.7998V77.3689Z" fill="black"/>
<path d="M32.6804 77.3689H29.7401V80.3092H32.6804V77.3689Z" fill="black"/>
<path d="M41.5015 77.3689H38.5611V80.3092H41.5015V77.3689Z" fill="black"/>
<path d="M44.4418 77.3689H41.5015V80.3092H44.4418V77.3689Z" fill="black"/>
<path d="M47.3822 77.3689H44.4418V80.3092H47.3822V77.3689Z" fill="black"/>
<path d="M50.3225 77.3689H47.3822V80.3092H50.3225V77.3689Z" fill="black"/>
<path d="M53.2628 77.3689H50.3225V80.3092H53.2628V77.3689Z" fill="black"/>
<path d="M59.1435 77.3689H56.2032L56.2032 80.3092H59.1435V77.3689Z" fill="black"/>
<path d="M62.0839 77.3689H59.1435V80.3092H62.0839V77.3689Z" fill="black"/>
<path d="M67.9646 77.3689H65.0242V80.3092H67.9646V77.3689Z" fill="black"/>
<path d="M70.9049 77.3689H67.9646V80.3092H70.9049V77.3689Z" fill="black"/>
<path d="M79.7259 77.3689H76.7856V80.3092H79.7259V77.3689Z" fill="black"/>
<path d="M82.6663 77.3689H79.7259V80.3092H82.6663V77.3689Z" fill="black"/>
<path d="M85.6066 77.3689H82.6663V80.3092H85.6066V77.3689Z" fill="black"/>
<path d="M15.0384 80.3092H12.098V83.2496H15.0384V80.3092Z" fill="black"/>
<path d="M32.6804 80.3092H29.7401V83.2496H32.6804V80.3092Z" fill="black"/>
<path d="M50.3225 80.3092H47.3822V83.2496H50.3225V80.3092Z" fill="black"/>
<path d="M59.1435 80.3092H56.2032V83.2496H59.1435V80.3092Z" fill="black"/>
<path d="M73.8452 80.3092H70.9049V83.2496H73.8452V80.3092Z" fill="black"/>
<path d="M79.7259 80.3092H76.7856V83.2496H79.7259V80.3092Z" fill="black"/>
<path d="M82.6663 80.3092H79.7259V83.2496H82.6663V80.3092Z" fill="black"/>
<path d="M85.6066 80.3092H82.6663V83.2496H85.6066V80.3092Z" fill="black"/>
<path d="M15.0384 83.2496H12.098V86.1899H15.0384V83.2496Z" fill="black"/>
<path d="M17.9787 83.2496H15.0384V86.1899H17.9787V83.2496Z" fill="black"/>
<path d="M20.9191 83.2496H17.9787V86.1899H20.9191V83.2496Z" fill="black"/>
<path d="M23.8594 83.2496H20.9191V86.1899H23.8594V83.2496Z" fill="black"/>
<path d="M26.7998 83.2496H23.8594V86.1899H26.7998V83.2496Z" fill="black"/>
<path d="M29.7401 83.2496H26.7998V86.1899H29.7401L29.7401 83.2496Z" fill="black"/>
<path d="M32.6804 83.2496H29.7401L29.7401 86.1899H32.6804V83.2496Z" fill="black"/>
<path d="M38.5611 83.2496H35.6208V86.1899H38.5611V83.2496Z" fill="black"/>
<path d="M47.3822 83.2496H44.4418V86.1899H47.3822V83.2496Z" fill="black"/>
<path d="M59.1435 83.2496H56.2032V86.1899H59.1435V83.2496Z" fill="black"/>
<path d="M65.0242 83.2496H62.0839V86.1899H65.0242V83.2496Z" fill="black"/>
<path d="M76.7856 83.2496H73.8452V86.1899H76.7856V83.2496Z" fill="black"/>
<path d="M85.6066 83.2496H82.6663V86.1899H85.6066V83.2496Z" fill="black"/>
</svg>
